<svg xmlns="http://www.w3.org/2000/svg" width="240" height="240" viewBox="0 0 240 240"><defs><linearGradient id="r" x1="0" x2="1" y1="0" y2="1"><stop stop-color="#ff4a55"/><stop offset="1" stop-color="#c91d2c"/></linearGradient><filter id="s" x="-20%" y="-20%" width="140%" height="140%"><feDropShadow dx="0" dy="14" stdDeviation="10" flood-color="#c91d2c" flood-opacity=".22"/></filter></defs><rect width="240" height="240" fill="white"/><path filter="url(#s)" d="M120 22l72 26v61c0 50-31 87-72 109-41-22-72-59-72-109V48l72-26z" fill="url(#r)"/><rect x="78" y="70" width="58" height="74" rx="8" fill="#fff"/><rect x="91" y="88" width="30" height="6" rx="3" fill="#94a3b8"/><rect x="91" y="105" width="30" height="6" rx="3" fill="#94a3b8"/><circle cx="96" cy="129" r="9" fill="#16a34a"/><path d="M91 129l4 4 8-10" fill="none" stroke="#fff" stroke-width="4" stroke-linecap="round" stroke-linejoin="round"/><circle cx="148" cy="125" r="34" fill="none" stroke="#fff" stroke-width="14"/><path d="M171 150l32 32" stroke="#fff" stroke-width="16" stroke-linecap="round"/><circle cx="148" cy="125" r="25" fill="rgba(255,255,255,.18)"/></svg>